<?xml version="1.0" encoding="UTF-8" standalone="no"?>
<!DOCTYPE svg PUBLIC "-//W3C//DTD SVG 1.1//EN"
 "http://www.w3.org/Graphics/SVG/1.1/DTD/svg11.dtd">
<!-- Generated by graphviz version 2.40.1 (20161225.0304)
 -->
<!-- Title: trace Pages: 1 -->
<svg width="684pt" height="107pt"
 viewBox="0.00 0.00 684.00 107.00" xmlns="http://www.w3.org/2000/svg" xmlns:xlink="http://www.w3.org/1999/xlink">
<g id="graph0" class="graph" transform="scale(1 1) rotate(0) translate(4 103)">
<title>trace</title>
<polygon fill="#ffffff" stroke="transparent" points="-4,4 -4,-103 680,-103 680,4 -4,4"/>
<g id="clust1" class="cluster">
<title>cluster_AS16509</title>
<polygon fill="none" stroke="#608686" points="8,-8 8,-91 172,-91 172,-8 8,-8"/>
<text text-anchor="middle" x="90" y="-79" font-family="Times,serif" font-size="10.00" fill="#000000">AS16509</text>
<text text-anchor="middle" x="90" y="-68" font-family="Times,serif" font-size="10.00" fill="#000000">[Amazon EC2 IAD prefix]</text>
</g>
<g id="clust2" class="cluster">
<title>cluster_AS24319</title>
<polygon fill="none" stroke="#60baba" points="180,-8 180,-91 418,-91 418,-8 180,-8"/>
<text text-anchor="middle" x="299" y="-79" font-family="Times,serif" font-size="10.00" fill="#000000">AS24319</text>
<text text-anchor="middle" x="299" y="-68" font-family="Times,serif" font-size="10.00" fill="#000000">[SINGTEL SERVICES AUSTRALIA PTY. LIMITED]</text>
</g>
<g id="clust3" class="cluster">
<title>cluster_AS35994</title>
<polygon fill="none" stroke="#60ffff" points="426,-8 426,-91 668,-91 668,-8 426,-8"/>
<text text-anchor="middle" x="547" y="-79" font-family="Times,serif" font-size="10.00" fill="#000000">AS35994</text>
<text text-anchor="middle" x="547" y="-68" font-family="Times,serif" font-size="10.00" fill="#000000">[Akamai]</text>
</g>
<!-- 23.20.239.12 -->
<g id="node1" class="node">
<title>23.20.239.12</title>
<polygon fill="#00ff00" stroke="#000000" points="16,-16.5 16,-52.5 164,-52.5 164,-16.5 16,-16.5"/>
<text text-anchor="middle" x="60.5" y="-30.8" font-family="Times,serif" font-size="14.00" fill="#000000">23.20.239.12</text>
<polyline fill="none" stroke="#000000" points="105,-16.5 105,-52.5 "/>
<text text-anchor="middle" x="134.5" y="-30.8" font-family="Times,serif" font-size="14.00" fill="#000000">http SA</text>
</g>
<!-- 23.63.109.211 -->
<g id="node2" class="node">
<title>23.63.109.211</title>
<polygon fill="#00ff00" stroke="#000000" points="190,-16.5 190,-52.5 408,-52.5 408,-16.5 190,-16.5"/>
<text text-anchor="middle" x="237.5" y="-30.8" font-family="Times,serif" font-size="14.00" fill="#000000">23.63.109.211</text>
<polyline fill="none" stroke="#000000" points="285,-16.5 285,-52.5 "/>
<text text-anchor="middle" x="314.5" y="-30.8" font-family="Times,serif" font-size="14.00" fill="#000000">http SA</text>
<polyline fill="none" stroke="#000000" points="344,-16.5 344,-52.5 "/>
<text text-anchor="middle" x="376" y="-30.8" font-family="Times,serif" font-size="14.00" fill="#000000">https SA</text>
</g>
<!-- 184.86.200.197 -->
<g id="node3" class="node">
<title>184.86.200.197</title>
<polygon fill="#00ff00" stroke="#000000" points="434.5,-16.5 434.5,-52.5 659.5,-52.5 659.5,-16.5 434.5,-16.5"/>
<text text-anchor="middle" x="485.5" y="-30.8" font-family="Times,serif" font-size="14.00" fill="#000000">184.86.200.197</text>
<polyline fill="none" stroke="#000000" points="536.5,-16.5 536.5,-52.5 "/>
<text text-anchor="middle" x="566" y="-30.8" font-family="Times,serif" font-size="14.00" fill="#000000">http SA</text>
<polyline fill="none" stroke="#000000" points="595.5,-16.5 595.5,-52.5 "/>
<text text-anchor="middle" x="627.5" y="-30.8" font-family="Times,serif" font-size="14.00" fill="#000000">https SA</text>
</g>
</g>
</svg>
